<svg xmlns="http://www.w3.org/2000/svg" viewBox="0 0 32 32">
  <style>
    .frame { fill: #2ee8d6; }
    @media (prefers-color-scheme: light) { .frame { fill: #1a9e92; } }
    @media (prefers-color-scheme: dark) { .frame { fill: #42fff0; } }
  </style>
  <clipPath id="w-band"><rect x="0" y="10" width="32" height="12.5"/></clipPath>
  <path class="frame" d="M0 0H24A8 8 0 0 1 32 8V24A8 8 0 0 1 24 32H8A8 8 0 0 1 0 24Z"/>
  <path fill="#081a1d" d="M2 2H24A6 6 0 0 1 30 8V24A6 6 0 0 1 24 30H8A6 6 0 0 1 2 24Z"/>
  <polygon fill="#f5d547" clip-path="url(#w-band)" points="2.20,4.30 10.34,26.44 16.00,15.65 21.66,26.44 29.80,4.30 26.80,3.20 21.14,18.56 16.00,8.75 10.86,18.56 5.20,3.20"/>
</svg>
